<svg width="1e3" height="600" version="1.1" viewBox="0 0 1e3 600" xmlns="http://www.w3.org/2000/svg">
 <g transform="matrix(1.9736 0 0 1.9736 -398.22 -290.87)">
  <path d="m436.35 247.43-24.333 1.676-30.225-52.352h-100.65l130.88 226.69 124.99-176.01z" fill="#4dba87"/>
  <path d="m442.24 196.76-30.225 52.352-30.225-52.352h-48.303l78.528 136.01 78.528-136.01z" fill="#435466"/>
  <path d="m535.23 335.19v-1.5382l-6.5e-4 -109.69c0-8.4458-6.9151-15.359-15.364-15.359-7.8452 0-14.368 5.9609-15.26 13.575v88.85h-10.485v-87.067c0-0.78112 0.0351-1.5543 0.10381-2.318v-20.409c0-8.4458-6.9151-15.359-15.364-15.359s-15.364 6.9129-15.364 15.359v109.79h-10.381v-88.001c0-8.4458-6.9151-15.359-15.364-15.359s-15.364 6.9129-15.364 15.359v159.19c0 17.854 14.623 32.481 32.397 32.481h73.311c3.8907 0 7.3046-3.3339 7.4437-7.2877 0.0659-3.0099 2.465-5.3728 5.4528-5.3726 6.3306-0.0572 15.29-2.3543 22.14-6.3498 8.6793-5.0623 13.514-12.224 13.514-21.877v-63.095c0-8.4487-6.7912-15.255-15.208-15.255-8.7277 0-15.83 7.1175-15.83 15.877v32.896h-0.6235v0.31133c-20.075 0-36.333 16.253-36.333 36.321h-10.381c0-22.454 15.835-41.196 36.956-45.679zm-123.22-2.4202v-109.74c0-14.177 11.563-25.736 25.744-25.736 5.7506 0 11.071 1.9006 15.364 5.1057v-1.1622c0-14.177 11.563-25.736 25.744-25.736 14.182 0 25.744 11.559 25.744 25.736v2.0191c4.2748-3.1584 9.5554-5.0286 15.26-5.0286 14.182 0 25.744 11.559 25.744 25.736v66.458c4.3994-3.3472 9.8849-5.335 15.83-5.335 14.156 0 25.589 11.458 25.589 25.632v63.095c0 13.662-7.0062 24.041-18.663 30.84-7.0888 4.1346-15.763 6.7361-23.167 7.5169-1.4408 0.15192-2.8335 0.23491-4.1572 0.24682 2.6134 0 4.798-2.1411 4.8773-4.7182-0.0474 1.544-0.29613 3.0431-0.72015 4.4714-2.1983 7.4049-9.1079 12.907-17.1 12.907h-73.311c-23.509 0-42.778-19.275-42.778-42.859z" fill="#4dba87" fill-rule="evenodd"/>
  <path d="m535.23 335.19v-1.5382l-6.5e-4 -109.69c0-8.4458-6.9151-15.359-15.364-15.359-7.8452 0-14.368 5.9609-15.26 13.575v88.85h-10.485v-87.067c0-0.78112 0.0351-1.5543 0.10381-2.318v-20.409c0-8.4458-6.9151-15.359-15.364-15.359s-15.364 6.9129-15.364 15.359v109.79h-10.381v-88.001c0-8.4458-6.9151-15.359-15.364-15.359s-15.364 6.9129-15.364 15.359v159.19c0 17.854 14.623 32.481 32.397 32.481h73.311c3.8907 0 7.3046-3.3339 7.4437-7.2877 0.0659-3.0099 2.465-5.3728 5.4528-5.3726 6.3306-0.0572 15.29-2.3543 22.14-6.3498 8.6793-5.0623 13.514-12.224 13.514-21.877v-63.095c0-8.4487-6.7912-15.255-15.208-15.255-8.7277 0-15.83 7.1175-15.83 15.877v32.896h-0.6235v0.31133c-20.075 0-36.333 16.253-36.333 36.321h-10.381c0-22.454 15.835-41.196 36.956-45.679z" fill="#fff" fill-rule="evenodd"/>
 </g>
</svg>
